<svg xmlns="http://www.w3.org/2000/svg" version="1.1" xmlns:xlink="http://www.w3.org/1999/xlink" xmlns:svgjs="http://svgjs.dev/svgjs" width="1000" height="361" viewBox="0 0 1000 361"><g transform="matrix(1,0,0,1,-0.6060606060606801,0.05278593800389331)"><svg viewBox="0 0 396 143" data-background-color="#ffffff" preserveAspectRatio="xMidYMid meet" height="361" width="1000" xmlns="http://www.w3.org/2000/svg" xmlns:xlink="http://www.w3.org/1999/xlink"><defs></defs><g id="tight-bounds" transform="matrix(1,0,0,1,0.24000000000003752,-0.020909665192675675)"><svg viewBox="0 0 395.5199999999999 143.04181933038532" height="143.04181933038532" width="395.5199999999999"><g><svg viewBox="0 0 395.5199999999999 143.04181933038532" height="143.04181933038532" width="395.5199999999999"><g><svg viewBox="0 0 395.5199999999999 143.04181933038532" height="143.04181933038532" width="395.5199999999999"><g><svg viewBox="0 0 395.52000000000004 143.04181933038535" height="143.04181933038532" width="395.5199999999999"><g><svg viewBox="0 0 395.52000000000004 143.04181933038535" height="143.04181933038535" width="395.52000000000004"><g><svg viewBox="0 0 395.52000000000004 143.04181933038535" height="143.04181933038535" width="395.52000000000004"><g><svg viewBox="0 0 395.52000000000004 143.04181933038535" height="143.04181933038535" width="395.52000000000004"><g transform="matrix(1,0,0,1,0,0)"><svg width="395.52000000000004" viewBox="0 -36.55 158.28 57.25" height="143.04181933038535" data-palette-color="#232374"><path d="M23.45-34.7L23.45-34.7Q23.2-34 14.25-17.55L14.25-17.55Q16.15-17.35 17.9-16.65L17.9-16.65Q24.4-20.7 29.98-25.88 35.55-31.05 38.05-36.05L38.05-36.05Q38.1-36.55 38.53-36.55 38.95-36.55 39.48-36.3 40-36.05 40-35.7L40-35.7Q38.05-30.9 32.2-25.63 26.35-20.35 19.1-16.05L19.1-16.05Q24.5-13.15 24.5-5.8L24.5-5.8Q24.5-3.65 23.95-1.85 23.4-0.05 22.9 0.65L22.9 0.65 22.35 1.35Q21.95 1.35 21.95 0.85L21.95 0.85 22.25-0.1Q22.95-2.25 22.95-4.2L22.95-4.2Q22.95-11.8 17.25-15L17.25-15Q14.5-13.5 11.25-12L11.25-12Q7.15-4.55 5-0.9L5-0.9Q4.65-0.05 4.08 0.2 3.5 0.45 2.9 0.45 2.3 0.45 2.3 0.25L2.3 0.25 8.35-10.85Q5.05-9.65 2.85-9.65L2.85-9.65Q0-9.65 0-11.85 0-14.05 3.78-15.88 7.55-17.7 12.1-17.7L12.1-17.7 20.95-33.95Q21.1-34.35 21.88-34.63 22.65-34.9 23.05-34.9 23.45-34.9 23.45-34.7ZM10.6-16.6L10.6-16.6Q7.1-16.6 4.45-15.3 1.8-14 1.8-12.2L1.8-12.2Q1.8-10.65 3.78-10.65 5.75-10.65 8.95-11.95L8.95-11.95 11.45-16.55Q11.15-16.6 10.6-16.6ZM13.6-16.3L13.6-16.3Q12.25-13.8 11.95-13.25L11.95-13.25Q13.5-14 16.1-15.55L16.1-15.55Q14.9-16.05 13.6-16.3ZM26.25-1.3L26.25-1.3Q28.5-1.25 29.4 0.05L29.4 0.05Q34.1-2.4 37.75-4.75L37.75-4.75Q37.8-4.6 37.8-4.3 37.8-4 37.35-3.8L37.35-3.8Q35.6-2.6 33.75-1.5 31.9-0.4 29.75 0.8L29.75 0.8Q29.9 1.3 29.9 2L29.9 2Q29.9 4.65 27.57 8.58 25.25 12.5 22.12 15.38 19 18.25 16.9 18.25L16.9 18.25Q15.95 18.25 15.95 16.75 15.95 15.25 21.2 5.1L21.2 5.1Q20.1 5.5 19.45 5.5L19.45 5.5Q17.65 5.5 17.65 4.45L17.65 4.45Q17.65 3.2 19.82 1.4 22-0.4 24.45-1.05L24.45-1.05Q30.05-11.2 35.3-18.48 40.55-25.75 43.3-25.75L43.3-25.75Q44.4-25.75 44.4-24.65L44.4-24.65Q44.4-23 43.17-20.7 41.95-18.4 40.15-16.18 38.35-13.95 36.12-11.6 33.9-9.25 32.1-7.58 30.3-5.9 28.9-4.63 27.5-3.35 27.45-3.3L27.45-3.3Q27.2-2.9 26.77-2.18 26.35-1.45 26.25-1.3ZM18.05 15.85L18.05 15.85Q18.05 16.4 18.4 16.4L18.4 16.4Q19.8 16.4 22.22 13.83 24.65 11.25 26.57 7.8 28.5 4.35 28.5 2.1L28.5 2.1Q28.5 1.7 28.45 1.5L28.45 1.5Q25.65 3.1 23.1 4.3L23.1 4.3Q18.05 13.55 18.05 15.85ZM42.6-23.4L42.6-23.4Q42.6-24 42.05-24L42.05-24Q41.1-23.95 37.2-18.43 33.3-12.9 28.65-5.3L28.65-5.3Q31.75-8.05 35.4-12.05L35.4-12.05Q42.6-19.85 42.6-23.4ZM21 1.33Q19.7 2.3 19.7 3 19.7 3.7 21 3.7L21 3.7Q21.2 3.7 22 3.5L22 3.5 23.95-0.1Q22.3 0.35 21 1.33ZM23.95 2.7L23.95 2.7Q25.2 2.2 28.2 0.65L28.2 0.65Q27.55-0.4 25.85-0.4L25.85-0.4 25.75-0.4Q25.4 0.2 24.8 1.25 24.2 2.3 23.95 2.7ZM45.1-15.25L45.1-15.25Q45.85-15.25 45.85-14.5 45.85-13.75 45.15-12.98 44.45-12.2 43.6-12.2L43.6-12.2Q42.9-12.2 42.9-13.18 42.9-14.15 43.7-14.7 44.5-15.25 45.1-15.25ZM40.4-8.65L40.4-8.65Q40.65-9.05 41.1-9.05 41.55-9.05 42-8.6L42-8.6Q42-8.4 41.35-7.7 40.7-7 39.15-4.58 37.6-2.15 37.6-1.35L37.6-1.35Q37.6-0.85 38.35-0.75L38.35-0.75Q39.35-0.75 41.45-1.73 43.55-2.7 45.15-3.7L45.15-3.7 46.75-4.7Q46.8-4.6 46.8-4.3 46.8-4 46.35-3.8L46.35-3.8Q39.6 0.8 36.95 0.8L36.95 0.8Q35.65 0.8 35.65-0.5 35.65-1.8 37.07-4.13 38.5-6.45 40.4-8.65ZM45.64-3.35L45.64-3.35Q45.44-3.25 45.27-3.25 45.09-3.25 45.09-3.45 45.09-3.65 45.24-3.8L45.24-3.8Q47.29-4.95 49.74-7.55L49.74-7.55Q47.49-8.25 47.49-9.53 47.49-10.8 49.19-12.38 50.89-13.95 52.39-13.95L52.39-13.95Q53.39-13.95 53.39-12.75L53.39-12.75Q53.39-10.9 51.54-8.8L51.54-8.8Q53.94-8.4 53.94-7.65L53.94-7.65Q53.94-6.65 53.07-6.13 52.19-5.6 51.04-4.25 49.89-2.9 49.89-1.55L49.89-1.55Q49.89-1.25 50.09-1 50.29-0.75 50.94-0.75 51.59-0.75 53.69-1.73 55.79-2.7 57.39-3.7L57.39-3.7 58.99-4.7Q59.04-4.6 59.04-4.3 59.04-4 58.59-3.8L58.59-3.8Q51.84 0.8 49.19 0.8L49.19 0.8Q47.89 0.8 47.89-0.5L47.89-0.5Q47.89-1.55 48.62-2.7 49.34-3.85 50.22-4.6 51.09-5.35 51.82-6.03 52.54-6.7 52.54-6.9 52.54-7.1 51.92-7.15 51.29-7.2 50.29-7.4L50.29-7.4Q47.54-4.45 45.64-3.35ZM48.74-10.3L48.74-10.3Q48.74-9.3 50.94-8.9L50.94-8.9Q52.24-10.5 52.24-11.68 52.24-12.85 51.49-12.85 50.74-12.85 49.74-11.98 48.74-11.1 48.74-10.3ZM94.19-8.8L94.19-8.8Q94.54-8.8 94.54-8.45 94.54-8.1 93.99-7.85L93.99-7.85Q90.59-6.15 85.99-6L85.99-6Q83.59-1.4 83.54-1.28 83.49-1.15 83.31-0.78 83.14-0.4 82.99-0.2L82.99-0.2Q82.69 0.3 82.34 0.3L82.34 0.3Q81.44 0.3 81.44-0.95L81.44-0.95Q81.44-3.6 80.79-6.35L80.79-6.35Q78.04-6.75 75.74-7.6L75.74-7.6 68.99 4.45 67.94 5.2Q67.34 5.5 66.99 5.5L66.99 5.5Q66.54 5.5 66.54 5L66.54 5Q66.54 4.7 66.74 4.3L66.74 4.3 73.94-8.35Q70.29-10 68.09-12.58 65.89-15.15 65.89-18.3L65.89-18.3Q65.89-22.45 68.89-22.45L68.89-22.45Q70.84-22.45 73.36-20.55 75.89-18.65 78.04-15.5L78.04-15.5 87.79-32.7Q88.34-33.5 89.74-33.5L89.74-33.5Q90.09-33.5 90.09-33.27 90.09-33.05 79.14-13.6L79.14-13.6Q80.89-10.45 81.69-7.05L81.69-7.05Q83.14-6.85 85.09-6.85L85.09-6.85Q90.74-17.85 100.44-35.2L100.44-35.2Q100.99-36.2 102.49-36.3L102.49-36.3Q102.89-36.3 102.89-36.02 102.89-35.75 102.54-35.15 102.19-34.55 99.49-29.8L99.49-29.8Q89.69-12.75 86.49-6.85L86.49-6.85Q90.69-7.1 94.19-8.8ZM74.44-9.2L74.44-9.2 77.29-14.2Q75.39-17.05 73.14-18.8 70.89-20.55 69.34-20.55L69.34-20.55Q67.64-20.55 67.64-18.5L67.64-18.5Q67.64-15.55 69.46-13.15 71.29-10.75 74.44-9.2ZM76.24-8.45L76.24-8.45Q78.24-7.65 80.54-7.25L80.54-7.25Q79.69-10 78.44-12.35L78.44-12.35Q76.29-8.55 76.24-8.45ZM81.84-6.2L81.84-6.2Q82.29-4 82.29-1.8L82.29-1.8 82.34-1.25Q82.69-2.05 84.64-6L84.64-6Q83.74-6 81.84-6.2ZM99.14-5.95L99.14-5.95Q98.84-5.95 98.84-6.3L98.84-6.3 98.99-6.65Q99.89-7.5 99.89-8.1L99.89-8.1Q99.89-8.85 99.09-8.85L99.09-8.85Q97.34-8.85 94.36-6.43 91.39-4 91.39-2.1L91.39-2.1Q91.39-1.3 92.44-1.3 93.49-1.3 94.86-2.18 96.24-3.05 97.21-3.93 98.19-4.8 98.29-4.8L98.29-4.8Q98.79-4.75 98.79-4.3L98.79-4.3Q98.79-4.1 98.01-3 97.24-1.9 97.24-1.25L97.24-1.25Q97.24-0.75 98.06-0.75 98.89-0.75 100.99-1.73 103.09-2.7 104.69-3.7L104.69-3.7 106.29-4.7Q106.34-4.6 106.34-4.3 106.34-4 105.89-3.8L105.89-3.8Q99.14 0.8 96.49 0.8L96.49 0.8Q95.19 0.8 95.19-0.5L95.19-0.5Q95.19-1.05 95.39-1.65L95.39-1.65Q95.04-1.25 93.31-0.43 91.59 0.4 90.24 0.4 88.89 0.4 88.89-0.85L88.89-0.85Q88.89-3.8 92.99-6.88 97.09-9.95 99.89-9.95L99.89-9.95Q101.54-9.95 101.54-8.55L101.54-8.55Q101.54-7.75 100.54-6.85 99.54-5.95 99.14-5.95ZM107.88-5.45L107.88-5.45Q105.48-3.25 104.83-3.25L104.83-3.25Q104.63-3.25 104.63-3.45 104.63-3.65 104.78-3.8L104.78-3.8Q105.98-4.45 107.58-5.9L107.58-5.9Q107.33-6.5 107.33-7.2L107.33-7.2Q107.33-8.9 109.08-10.45 110.83-12 112.03-12L112.03-12Q112.68-12 112.68-11.38 112.68-10.75 110.68-8.35L110.68-8.35Q110.48-8.1 110.23-7.85 109.98-7.6 109.71-7.28 109.43-6.95 109.28-6.8L109.28-6.8Q109.53-6.55 110.18-5.93 110.83-5.3 111.23-4.9L111.23-4.9Q112.33-3.8 112.33-2.15 112.33-0.5 110.28 0.73 108.23 1.95 106.01 1.95 103.78 1.95 103.78 0.63 103.78-0.7 105.83-1.8 107.88-2.9 110.13-3.3L110.13-3.3Q109.83-3.7 109.01-4.35 108.18-5 107.88-5.45ZM110.48-2.7Q108.78-2.5 107.28-1.78 105.78-1.05 105.78-0.08 105.78 0.9 107.16 0.9 108.53 0.9 109.61 0.25 110.68-0.4 110.68-1.2 110.68-2 110.48-2.7L110.48-2.7ZM108.93-7.2L108.93-7.2 110.23-8.6Q111.53-10.15 111.53-10.48 111.53-10.8 111.23-10.8L111.23-10.8Q110.38-10.8 109.48-9.98 108.58-9.15 108.58-8.38 108.58-7.6 108.93-7.2ZM115.48-0.65L115.48-0.65Q115.93-0.65 120.51-4.63 125.08-8.6 125.88-8.6 126.68-8.6 126.68-7.9L126.68-7.9Q126.68-7.35 125.68-6.2 124.68-5.05 123.71-3.7 122.73-2.35 122.73-1.3L122.73-1.3Q122.73-0.75 123.56-0.75 124.38-0.75 126.48-1.73 128.58-2.7 130.18-3.7L130.18-3.7 131.78-4.7Q131.83-4.6 131.83-4.3 131.83-4 131.38-3.8L131.38-3.8Q124.63 0.8 121.98 0.8L121.98 0.8Q120.68 0.8 120.68-0.6L120.68-0.6Q120.68-1.55 121.38-2.9 122.08-4.25 122.78-5.15L122.78-5.15 123.43-6.05Q121.18-4.35 118.78-2.23 116.38-0.1 115.13 0.98 113.88 2.05 113.38 2.05 112.88 2.05 112.88 1.33 112.88 0.6 115.23-3.7 117.58-8 120.66-12.98 123.73-17.95 127.11-22 130.48-26.05 132.23-26.05L132.23-26.05Q132.98-26.05 133.28-25.35L133.28-25.35Q133.43-25.1 133.43-24.75L133.43-24.75Q133.43-21.3 123.08-11.5L123.08-11.5Q121.13-9.6 119.28-8L119.28-8Q115.48-1.6 115.48-0.65ZM131.78-24.2L131.78-24.2Q131.78-24.7 131.53-24.7L131.53-24.7Q130.53-24.7 127.33-20.3 124.13-15.9 120.53-10.05L120.53-10.05Q131.78-20.3 131.78-24.2ZM139.83-5.95L139.83-5.95Q139.53-5.95 139.53-6.3L139.53-6.3 139.68-6.65Q140.58-7.5 140.58-8.1L140.58-8.1Q140.58-8.85 139.78-8.85L139.78-8.85Q138.03-8.85 135.05-6.43 132.08-4 132.08-2.1L132.08-2.1Q132.08-1.3 133.13-1.3 134.18-1.3 135.55-2.18 136.93-3.05 137.9-3.93 138.88-4.8 138.98-4.8L138.98-4.8Q139.48-4.75 139.48-4.3L139.48-4.3Q139.48-4.1 138.7-3 137.93-1.9 137.93-1.25L137.93-1.25Q137.93-0.75 138.75-0.75 139.58-0.75 141.68-1.73 143.78-2.7 145.38-3.7L145.38-3.7 146.98-4.7Q147.03-4.6 147.03-4.3 147.03-4 146.58-3.8L146.58-3.8Q139.83 0.8 137.18 0.8L137.18 0.8Q135.88 0.8 135.88-0.5L135.88-0.5Q135.88-1.05 136.08-1.65L136.08-1.65Q135.73-1.25 134-0.43 132.28 0.4 130.93 0.4 129.58 0.4 129.58-0.85L129.58-0.85Q129.58-3.8 133.68-6.88 137.78-9.95 140.58-9.95L140.58-9.95Q142.23-9.95 142.23-8.55L142.23-8.55Q142.23-7.75 141.23-6.85 140.23-5.95 139.83-5.95ZM158.28-9.35Q158.28-9.3 157.15-7.58 156.03-5.85 155.4-4.95 154.78-4.05 150.18 3.45L150.18 3.45Q150.58 3.4 151.48 3.4L151.48 3.4Q153.88 3.4 153.88 4.65L153.88 4.65Q153.88 5.35 152.98 6.3 152.08 7.25 151.58 7.25 151.08 7.25 151.08 6.9L151.08 6.9Q151.08 6.7 151.63 6.28 152.18 5.85 152.18 5.28 152.18 4.7 151.2 4.7 150.23 4.7 149.33 4.85L149.33 4.85Q144.78 12.3 141.48 16.5 138.18 20.7 135.83 20.7L135.83 20.7Q134.13 20.7 134.13 18.95L134.13 18.95Q134.13 15.95 138.65 10.63 143.18 5.3 148.48 3.8L148.48 3.8 153.28-4.5Q151.18-2.6 148.95-1.15 146.73 0.3 145.58 0.3 144.43 0.3 144.43-0.75L144.43-0.75Q144.43-2.35 149.68-9.6L149.68-9.6Q149.93-10 150.33-10L150.33-10Q151.48-9.65 151.48-9.5 151.48-9.35 151.18-8.9L151.18-8.9Q146.68-2.8 146.68-1.85L146.68-1.85Q146.68-1.25 147.35-1.25 148.03-1.25 150.15-2.85 152.28-4.45 153.78-6.1L153.78-6.1 156.58-9.5Q156.88-9.85 157.33-9.85L157.33-9.85Q158.28-9.7 158.28-9.35L158.28-9.35ZM138.98 11.68Q137.53 13.65 136.68 15.43 135.83 17.2 135.83 18.23 135.83 19.25 136.63 19.25L136.63 19.25Q139.13 19.25 147.58 5.25L147.58 5.25Q145.08 6.05 142.75 7.88 140.43 9.7 138.98 11.68Z" opacity="1" transform="matrix(1,0,0,1,0,0)" fill="currentColor" class="undefined-text-0" data-fill-palette-color="primary" id="text-0"></path></svg></g></svg></g></svg></g></svg></g><g></g></svg></g></svg></g></svg></g></svg><rect width="395.5199999999999" height="143.04181933038532" fill="currentColor" stroke="none" visibility="hidden"></rect></g></svg></g></svg>